<svg width="20" height="16" viewBox="0 0 20 16" fill="none" xmlns="http://www.w3.org/2000/svg">
<path d="M17.0555 2.66402C17.8375 2.19523 18.4381 1.45294 18.7209 0.56851C17.9891 1.00252 17.1784 1.31775 16.3157 1.48765C15.6247 0.751515 14.6404 0.291504 13.551 0.291504C11.4591 0.291504 9.76318 1.98737 9.76318 4.0791C9.76318 4.37595 9.79674 4.66505 9.8613 4.94226C6.71335 4.78431 3.92242 3.27637 2.05429 0.984829C1.72825 1.54424 1.54147 2.19489 1.54147 2.88902C1.54147 4.20308 2.21021 5.36242 3.22653 6.04164C2.6056 6.02199 2.0216 5.85161 1.51088 5.56792C1.51061 5.58372 1.51061 5.59959 1.51061 5.61552C1.51061 7.45071 2.81622 8.9816 4.54896 9.32951C4.2311 9.41608 3.89649 9.46234 3.55101 9.46234C3.30696 9.46234 3.06966 9.43864 2.83844 9.39441C3.3204 10.8992 4.7192 11.9943 6.37664 12.0249C5.08035 13.0407 3.44715 13.6463 1.67261 13.6463C1.3669 13.6463 1.06539 13.6284 0.769066 13.5934C2.44528 14.668 4.43625 15.2951 6.57525 15.2951C13.5421 15.2951 17.3519 9.52352 17.3519 4.51831C17.3519 4.35407 17.3482 4.19072 17.3409 4.02831C18.0809 3.49429 18.7231 2.82717 19.2309 2.0676C18.5517 2.36884 17.8217 2.57245 17.0555 2.66402Z" fill="black"/>
</svg>
